# xmcd CD database file
#
# Track frame offsets:
#	150
#	19620
#	37653
#	54738
#	73855
#	89463
#	104266
#	120279
#	133129
#	154376
#	173275
#	192077
#
# Disc length: 2831 seconds
#
# Revision: 1
# Processed by: cddbd v1.5.2PL0 Copyright (c) Steve Scherf et al.
# Submitted via: CDex 1.70beta3
#
DISCID=940b0d0c
DTITLE=糞田舎P - entrance
DYEAR=2010
DGENRE=Vocaloid
TTITLE0=糞田舎P feat.初音ミク - エントランス
TTITLE1=糞田舎P feat.初音ミク - ミカヅキプリンセス
TTITLE2=糞田舎P feat.初音ミク - BlueberrySky
TTITLE3=糞田舎P feat.初音ミク - Pear
TTITLE4=糞田舎P feat.初音ミク - 夏がキライ、プールがあるから。
TTITLE5=糞田舎P feat.初音ミク - 緑が歌う街
TTITLE6=糞田舎P feat.初音ミク - ライムライトガール
TTITLE7=糞田舎P feat.初音ミク - displasm
TTITLE8=糞田舎P feat.初音ミク - ずぶぬれアフタヌーン
TTITLE9=糞田舎P feat.初音ミク - STAR CHART
TTITLE10=糞田舎P feat.初音ミク - 花へ辿る糸
TTITLE11=糞田舎P feat.初音ミク - 虹の彼方
EXTD=YEAR: 2010
EXTT0=
EXTT1=
EXTT2=
EXTT3=
EXTT4=
EXTT5=
EXTT6=
EXTT7=
EXTT8=
EXTT9=
EXTT10=
EXTT11=
PLAYORDER=
